<svg xmlns="http://www.w3.org/2000/svg" viewBox="0 0 1102.3094010767586 310" width="1102.3094010767586" height="310"><rect x="0" y="0" width="1102.3094010767586" height="310" fill="rgb(7, 0, 33)"/><g transform="translate(25 25)"><g><text x="0" y="25" fill="white" font-family="Arial, Helvetica, sans-serif" font-size="18px" font-weight="normal" font-style="normal" dominant-baseline="middle">server</text><g transform="translate(100 0)"><g><line x1="0" y1="25" x2="950" y2="25" stroke="white" stroke-width="2"/><polyline points="940,19.226497308103742 950,25 940,30.773502691896258" fill="none" stroke="white" stroke-width="2" stroke-linecap="square"/></g><g transform="translate(899 0)"><line x1="0" y1="0" x2="0" y2="50" stroke="white" stroke-width="2"/></g><g transform="translate(790 0)"><ellipse cx="20" cy="25" rx="19" ry="19" fill="hsl(311, 60%, 20%)" stroke="white" stroke-width="2"/><text x="0" y="0" fill="white" font-family="Arial, Helvetica, sans-serif" font-size="18px" font-weight="normal" font-style="normal" dominant-baseline="middle" text-anchor="middle" transform="translate(20 25)">60</text></g><g transform="translate(670 0)"><ellipse cx="20" cy="25" rx="17.5" ry="17.5" fill="rgb(229, 26, 66)" stroke="white" stroke-width="5"/><text x="0" y="0" fill="white" font-family="Arial, Helvetica, sans-serif" font-size="18px" font-weight="bold" font-style="normal" dominant-baseline="middle" text-anchor="middle" transform="translate(20 25)">52</text></g><g transform="translate(190 0)"><ellipse cx="20" cy="25" rx="19" ry="19" fill="hsl(60, 60%, 20%)" stroke="white" stroke-width="2"/><text x="0" y="0" fill="white" font-family="Arial, Helvetica, sans-serif" font-size="18px" font-weight="normal" font-style="normal" dominant-baseline="middle" text-anchor="middle" transform="translate(20 25)">20</text></g><g transform="translate(40 0)"><ellipse cx="20" cy="25" rx="19" ry="19" fill="hsl(169, 60%, 20%)" stroke="white" stroke-width="2"/><text x="0" y="0" fill="white" font-family="Arial, Helvetica, sans-serif" font-size="18px" font-weight="normal" font-style="normal" dominant-baseline="middle" text-anchor="middle" transform="translate(20 25)">10</text></g></g></g><g transform="translate(0 70)"><text x="0" y="25" fill="white" font-family="Arial, Helvetica, sans-serif" font-size="18px" font-weight="normal" font-style="normal" dominant-baseline="middle">client</text><g transform="translate(100 0)"><g><line x1="0" y1="25" x2="950" y2="25" stroke="white" stroke-width="2"/><polyline points="940,19.226497308103742 950,25 940,30.773502691896258" fill="none" stroke="white" stroke-width="2" stroke-linecap="square"/></g><g transform="translate(899 0)"><line x1="0" y1="0" x2="0" y2="50" stroke="white" stroke-width="2"/></g><g transform="translate(820 0)"><ellipse cx="20" cy="25" rx="19" ry="19" fill="hsl(92, 60%, 20%)" stroke="white" stroke-width="2"/><text x="0" y="0" fill="white" font-family="Arial, Helvetica, sans-serif" font-size="18px" font-weight="normal" font-style="normal" dominant-baseline="middle" text-anchor="middle" transform="translate(20 25)">62</text></g><g transform="translate(730 0)"><ellipse cx="20" cy="25" rx="17.5" ry="17.5" fill="rgb(229, 26, 66)" stroke="white" stroke-width="5"/><text x="0" y="0" fill="white" font-family="Arial, Helvetica, sans-serif" font-size="18px" font-weight="bold" font-style="normal" dominant-baseline="middle" text-anchor="middle" transform="translate(20 25)">57</text></g><g transform="translate(190 0)"><ellipse cx="20" cy="25" rx="19" ry="19" fill="hsl(60, 60%, 20%)" stroke="white" stroke-width="2"/><text x="0" y="0" fill="white" font-family="Arial, Helvetica, sans-serif" font-size="18px" font-weight="normal" font-style="normal" dominant-baseline="middle" text-anchor="middle" transform="translate(20 25)">20</text></g><g transform="translate(40 0)"><ellipse cx="20" cy="25" rx="19" ry="19" fill="hsl(169, 60%, 20%)" stroke="white" stroke-width="2"/><text x="0" y="0" fill="white" font-family="Arial, Helvetica, sans-serif" font-size="18px" font-weight="normal" font-style="normal" dominant-baseline="middle" text-anchor="middle" transform="translate(20 25)">10</text></g></g></g><g transform="translate(0 140)"><text x="0" y="25" fill="white" font-family="Arial, Helvetica, sans-serif" font-size="18px" font-weight="normal" font-style="normal" dominant-baseline="middle">Gatling</text><g transform="translate(100 0)"><g><line x1="0" y1="25" x2="950" y2="25" stroke="white" stroke-width="2"/><polyline points="940,19.226497308103742 950,25 940,30.773502691896258" fill="none" stroke="white" stroke-width="2" stroke-linecap="square"/></g><g transform="translate(899 0)"><line x1="0" y1="0" x2="0" y2="50" stroke="white" stroke-width="2"/></g><g transform="translate(820 0)"><ellipse cx="20" cy="25" rx="19" ry="19" fill="rgb(7, 0, 33)" stroke="rgba(0, 0, 0, 0)" stroke-width="2"/><text x="0" y="0" fill="white" font-family="Arial, Helvetica, sans-serif" font-size="18px" font-weight="normal" font-style="normal" dominant-baseline="middle" text-anchor="middle" transform="translate(20 25)">5</text></g><g transform="translate(730 0)"><ellipse cx="20" cy="25" rx="19" ry="19" fill="rgb(7, 0, 33)" stroke="rgba(0, 0, 0, 0)" stroke-width="2"/><text x="0" y="0" fill="white" font-family="Arial, Helvetica, sans-serif" font-size="18px" font-weight="normal" font-style="normal" dominant-baseline="middle" text-anchor="middle" transform="translate(20 25)">37</text></g><g transform="translate(190 0)"><ellipse cx="20" cy="25" rx="19" ry="19" fill="rgb(7, 0, 33)" stroke="rgba(0, 0, 0, 0)" stroke-width="2"/><text x="0" y="0" fill="white" font-family="Arial, Helvetica, sans-serif" font-size="18px" font-weight="normal" font-style="normal" dominant-baseline="middle" text-anchor="middle" transform="translate(20 25)">10</text></g></g></g><g transform="translate(0 210)"><text x="0" y="25" fill="white" font-family="Arial, Helvetica, sans-serif" font-size="18px" font-weight="normal" font-style="normal" dominant-baseline="middle">Hdr Hist</text><g transform="translate(100 0)"><g><line x1="0" y1="25" x2="950" y2="25" stroke="white" stroke-width="2"/><polyline points="940,19.226497308103742 950,25 940,30.773502691896258" fill="none" stroke="white" stroke-width="2" stroke-linecap="square"/></g><g transform="translate(899 0)"><line x1="0" y1="0" x2="0" y2="50" stroke="white" stroke-width="2"/></g><g transform="translate(820 0)"><ellipse cx="20" cy="25" rx="19" ry="19" fill="rgb(7, 0, 33)" stroke="rgba(0, 0, 0, 0)" stroke-width="2"/><text x="0" y="0" fill="white" font-family="Arial, Helvetica, sans-serif" font-size="18px" font-weight="normal" font-style="normal" dominant-baseline="middle" text-anchor="middle" transform="translate(20 25)">2</text></g><g transform="translate(730 0)"><ellipse cx="20" cy="25" rx="19" ry="19" fill="rgb(7, 0, 33)" stroke="rgba(0, 0, 0, 0)" stroke-width="2"/><text x="0" y="0" fill="white" font-family="Arial, Helvetica, sans-serif" font-size="18px" font-weight="normal" font-style="normal" dominant-baseline="middle" text-anchor="middle" transform="translate(20 25)">5</text></g><g transform="translate(190 0)"><ellipse cx="20" cy="25" rx="19" ry="19" fill="rgb(7, 0, 33)" stroke="rgba(0, 0, 0, 0)" stroke-width="2"/><text x="0" y="0" fill="white" font-family="Arial, Helvetica, sans-serif" font-size="18px" font-weight="normal" font-style="normal" dominant-baseline="middle" text-anchor="middle" transform="translate(20 25)">0</text></g><g transform="translate(40 0)"><ellipse cx="20" cy="25" rx="19" ry="19" fill="rgb(7, 0, 33)" stroke="rgba(0, 0, 0, 0)" stroke-width="2"/><text x="0" y="0" fill="white" font-family="Arial, Helvetica, sans-serif" font-size="18px" font-weight="normal" font-style="normal" dominant-baseline="middle" text-anchor="middle" transform="translate(20 25)">0</text></g></g></g></g></svg>