<svg xmlns="http://www.w3.org/2000/svg" viewBox="0 0 792.3094010767585 170" width="792.3094010767585" height="170"><rect x="0" y="0" width="792.3094010767585" height="170" fill="rgb(7, 0, 33)"/><g transform="translate(25 25)"><g><g><line x1="0" y1="25" x2="740" y2="25" stroke="white" stroke-width="2"/><polyline points="730,19.226497308103742 740,25 730,30.773502691896258" fill="none" stroke="white" stroke-width="2" stroke-linecap="square"/></g><g transform="translate(689 0)"><line x1="0" y1="0" x2="0" y2="50" stroke="white" stroke-width="2"/></g><g transform="translate(485 0)"><ellipse cx="25" cy="25" rx="24" ry="24" fill="hsl(82, 60%, 20%)" stroke="white" stroke-width="2"/><text x="0" y="0" fill="white" font-family="Arial, Helvetica, sans-serif" font-size="18px" font-weight="normal" font-style="normal" dominant-baseline="middle" text-anchor="middle" transform="translate(25 25)">...</text></g><g transform="translate(335 0)"><ellipse cx="25" cy="25" rx="24" ry="24" fill="hsl(163, 60%, 20%)" stroke="white" stroke-width="2"/><text x="0" y="0" fill="white" font-family="Arial, Helvetica, sans-serif" font-size="18px" font-weight="normal" font-style="normal" dominant-baseline="middle" text-anchor="middle" transform="translate(25 25)">300</text></g><g transform="translate(185 0)"><ellipse cx="25" cy="25" rx="24" ry="24" fill="hsl(338, 60%, 20%)" stroke="white" stroke-width="2"/><text x="0" y="0" fill="white" font-family="Arial, Helvetica, sans-serif" font-size="18px" font-weight="normal" font-style="normal" dominant-baseline="middle" text-anchor="middle" transform="translate(25 25)">200</text></g><g transform="translate(35 0)"><ellipse cx="25" cy="25" rx="24" ry="24" fill="hsl(190, 60%, 20%)" stroke="white" stroke-width="2"/><text x="0" y="0" fill="white" font-family="Arial, Helvetica, sans-serif" font-size="18px" font-weight="normal" font-style="normal" dominant-baseline="middle" text-anchor="middle" transform="translate(25 25)">100</text></g></g><g transform="translate(0 70)"><g><line x1="0" y1="25" x2="740" y2="25" stroke="white" stroke-width="2"/><polyline points="730,19.226497308103742 740,25 730,30.773502691896258" fill="none" stroke="white" stroke-width="2" stroke-linecap="square"/></g><g transform="translate(689 0)"><line x1="0" y1="0" x2="0" y2="50" stroke="white" stroke-width="2"/></g><g transform="translate(545 0)"><ellipse cx="25" cy="25" rx="24" ry="24" fill="hsl(82, 60%, 20%)" stroke="white" stroke-width="2"/><text x="0" y="0" fill="white" font-family="Arial, Helvetica, sans-serif" font-size="18px" font-weight="normal" font-style="normal" dominant-baseline="middle" text-anchor="middle" transform="translate(25 25)">...</text></g><g transform="translate(395 0)"><ellipse cx="25" cy="25" rx="24" ry="24" fill="hsl(356, 60%, 20%)" stroke="white" stroke-width="2"/><text x="0" y="0" fill="white" font-family="Arial, Helvetica, sans-serif" font-size="18px" font-weight="normal" font-style="normal" dominant-baseline="middle" text-anchor="middle" transform="translate(25 25)">332</text></g><g transform="translate(245 0)"><ellipse cx="25" cy="25" rx="24" ry="24" fill="hsl(130, 60%, 20%)" stroke="white" stroke-width="2"/><text x="0" y="0" fill="white" font-family="Arial, Helvetica, sans-serif" font-size="18px" font-weight="normal" font-style="normal" dominant-baseline="middle" text-anchor="middle" transform="translate(25 25)">232</text></g><g transform="translate(95 0)"><ellipse cx="25" cy="25" rx="24" ry="24" fill="hsl(312, 60%, 20%)" stroke="white" stroke-width="2"/><text x="0" y="0" fill="white" font-family="Arial, Helvetica, sans-serif" font-size="18px" font-weight="normal" font-style="normal" dominant-baseline="middle" text-anchor="middle" transform="translate(25 25)">132</text></g></g></g></svg>